<?xml version="1.0" encoding="utf-8"?><svg xmlns="http://www.w3.org/2000/svg" xmlns:xlink="http://www.w3.org/1999/xlink"><symbol viewBox="20.2 141 373.6 512" id="killer-mask" xmlns="http://www.w3.org/2000/svg"><circle cx="267" cy="517" r="10"/><circle cx="237" cy="457" r="10"/><circle cx="237" cy="577" r="10"/><circle cx="207" cy="517" r="10"/><circle cx="177" cy="457" r="10"/><circle cx="177" cy="577" r="10"/><circle cx="147" cy="517" r="10"/><path d="M132 327c-30.8 0-55 17.6-55 40s24.2 40 55 40 55-17.6 55-40-24.2-40-55-40zm0 60c-20.6 0-35-10.5-35-20s14.4-20 35-20 35 10.5 35 20-14.4 20-35 20zm205-20c0-22.4-24.2-40-55-40s-55 17.6-55 40 24.2 40 55 40 55-17.6 55-40zm-90 0c0-9.5 14.4-20 35-20s35 10.5 35 20-14.4 20-35 20-35-10.5-35-20z"/><path d="M355.4 497.1c5.2 1.9 10.9-.8 12.8-6 10.9-30 18.7-62.1 22.6-92.9 10.4-82.2-6.9-155.6-47.3-201.4C310.9 159.8 265 141 207 141s-104 18.8-136.7 55.9c-40.4 45.8-57.5 119.2-47.1 201.4C31 460 53.6 522.8 85.3 570.5 120.6 623.7 163.9 653 207 653c42.3 0 84.8-28.2 119.7-79.4 3.1-4.6 1.9-10.8-2.6-13.9-4.6-3.1-10.8-1.9-13.9 2.6C279.1 607.9 242.5 633 207 633c-36.2 0-73.5-26.1-105-73.5-30-45.2-51.5-104.9-59-163.7-9.7-76.5 5.7-144.2 42.3-185.7C114 177.5 155 161 207 161s92.9 16.5 121.6 49.1c36.6 41.5 52.1 109.2 42.4 185.7-3.7 29.3-11.2 59.9-21.6 88.5-1.8 5.2.8 10.9 6 12.8z"/><circle cx="341" cy="529" r="10"/></symbol></svg>