<?xml version="1.0" encoding="utf-8"?>
<!-- Generator: Adobe Illustrator 18.1.1, SVG Export Plug-In . SVG Version: 6.00 Build 0)  -->
<svg version="1.1" id="Capa_1" xmlns="http://www.w3.org/2000/svg" xmlns:xlink="http://www.w3.org/1999/xlink" x="0px" y="0px"
	 viewBox="20.2 141 373.6 512" enable-background="new 20.2 141 373.6 512" xml:space="preserve">
<g>
	<circle cx="267" cy="517" r="10"/>
	<circle cx="237" cy="457" r="10"/>
	<circle cx="237" cy="577" r="10"/>
	<circle cx="207" cy="517" r="10"/>
	<circle cx="177" cy="457" r="10"/>
	<circle cx="177" cy="577" r="10"/>
	<circle cx="147" cy="517" r="10"/>
	<path d="M132,327c-30.8,0-55,17.6-55,40s24.2,40,55,40s55-17.6,55-40S162.8,327,132,327z M132,387c-20.6,0-35-10.5-35-20
		s14.4-20,35-20s35,10.5,35,20S152.6,387,132,387z"/>
	<path d="M337,367c0-22.4-24.2-40-55-40s-55,17.6-55,40s24.2,40,55,40S337,389.4,337,367z M247,367c0-9.5,14.4-20,35-20
		s35,10.5,35,20s-14.4,20-35,20S247,376.5,247,367z"/>
	<path d="M355.4,497.1c5.2,1.9,10.9-0.8,12.8-6c10.9-30,18.7-62.1,22.6-92.9c10.4-82.2-6.9-155.6-47.3-201.4
		C310.9,159.8,265,141,207,141c-58,0-104,18.8-136.7,55.9c-40.4,45.8-57.5,119.2-47.1,201.4C31,460,53.6,522.8,85.3,570.5
		C120.6,623.7,163.9,653,207,653c42.3,0,84.8-28.2,119.7-79.4c3.1-4.6,1.9-10.8-2.6-13.9c-4.6-3.1-10.8-1.9-13.9,2.6
		C279.1,607.9,242.5,633,207,633c-36.2,0-73.5-26.1-105-73.5c-30-45.2-51.5-104.9-59-163.7c-9.7-76.5,5.7-144.2,42.3-185.7
		C114,177.5,155,161,207,161c52,0,92.9,16.5,121.6,49.1c36.6,41.5,52.1,109.2,42.4,185.7c-3.7,29.3-11.2,59.9-21.6,88.5
		C347.6,489.5,350.2,495.2,355.4,497.1L355.4,497.1z"/>
	<circle cx="341" cy="529" r="10"/>
</g>
</svg>
